<svg xmlns="http://www.w3.org/2000/svg" x="0px" y="0px"
width="50" height="50"
viewBox="0 0 226 226"
style=" fill:#000000;"><defs><linearGradient x1="94.27025" y1="23.64525" x2="133.83438" y2="63.20938" gradientUnits="userSpaceOnUse" id="color-1_6mvDpjUNQ7OS_gr1"><stop offset="0" stop-color="#f1c40f"></stop><stop offset="1" stop-color="#e67e22"></stop></linearGradient><linearGradient x1="169.60358" y1="141.35358" x2="209.16771" y2="180.91771" gradientUnits="userSpaceOnUse" id="color-2_6mvDpjUNQ7OS_gr2"><stop offset="0" stop-color="#f1c40f"></stop><stop offset="1" stop-color="#e67e22"></stop></linearGradient><linearGradient x1="18.93692" y1="141.35358" x2="58.50104" y2="180.91771" gradientUnits="userSpaceOnUse" id="color-3_6mvDpjUNQ7OS_gr3"><stop offset="0" stop-color="#f1c40f"></stop><stop offset="1" stop-color="#e67e22"></stop></linearGradient></defs><g fill="none" fill-rule="nonzero" stroke="none" stroke-width="none" stroke-linecap="butt" stroke-linejoin="miter" stroke-miterlimit="10" stroke-dasharray="" stroke-dashoffset="0" font-family="none" font-weight="none" font-size="none" text-anchor="none" style="mix-blend-mode: normal"><path d="M0,226v-226h226v226z" fill="none" stroke="none" stroke-width="1"></path><g><path d="M28.25,122.41667c0,-46.80613 37.94387,-84.75 84.75,-84.75c46.80613,0 84.75,37.94387 84.75,84.75c0,46.80613 -37.94387,84.75 -84.75,84.75c-46.80613,0 -84.75,-37.94387 -84.75,-84.75z" fill="none" stroke="#64717c" stroke-width="18.83333"></path><circle cx="24" cy="9" transform="scale(4.70833,4.70833)" r="6" fill="url(#color-1_6mvDpjUNQ7OS_gr1)" stroke="none" stroke-width="1"></circle><circle cx="40" cy="34" transform="scale(4.70833,4.70833)" r="6" fill="url(#color-2_6mvDpjUNQ7OS_gr2)" stroke="none" stroke-width="1"></circle><circle cx="8" cy="34" transform="scale(4.70833,4.70833)" r="6" fill="url(#color-3_6mvDpjUNQ7OS_gr3)" stroke="none" stroke-width="1"></circle></g></g></svg>
